# xmcd
#
# Track frame offsets:
#	187
#	15940
#	29862
#	48397
#	66870
#	84070
#	99460
#	113400
#	127507
#	143135
#	163557
#	179320
#	198175
#	212280
#	226297
#	243297
#	266930
#	286190
#
# Disc length: 4071 seconds
#
# Revision: 1
# Processed by: cddbd v1.5.1PL0 Copyright (c) Steve Scherf et al.
# Submitted via: CDex 1.50Beta5
#
DISCID=e10fe512
DTITLE=Various Artist - disco super hit's2
DYEAR=1900
DGENRE=disco
TTITLE0=アラベスク/ハロー・ミスター・モンキー
TTITLE1=ジンギスカン/ジンギスカン
TTITLE2=ドクタードラゴン/セクシー・バス・ストップ
TTITLE3=シルバーコンベンション/ノー・ノー・ジョー
TTITLE4=ジンギスカン/ハッチ大作戦
TTITLE5=ヴァン・マッコイ&ソウル・シティ・シンフォニー/ディスコキッド
TTITLE6=スタイリスティックス/ラブイズジアンサー
TTITLE7=アラベスク/ペパーミントジャック
TTITLE8=アラベスク/フライハイ
TTITLE9=ジンギスカン/めざせモスクワ
TTITLE10=スタイリスティックス/オンリーユー
TTITLE11=ドクタードラゴン/ハッスルジェット
TTITLE12=アラベスク/ハイライフ
TTITLE13=ジャック・ディメロ&イースト・ウェスト・コネクション/ビューティフルサンデー
TTITLE14=アラベスク/さわやかメイクラブ
TTITLE15=キャロルダグラス/燃えよフィーバー
TTITLE16=ドクタードラゴン/ピーナッツ
TTITLE17=ファンキービューロー/クッラップユアハンド
EXTD=
EXTT0=
EXTT1=
EXTT2=
EXTT3=
EXTT4=
EXTT5=
EXTT6=
EXTT7=
EXTT8=
EXTT9=
EXTT10=
EXTT11=
EXTT12=
EXTT13=
EXTT14=
EXTT15=
EXTT16=
EXTT17=
PLAYORDER=
